<svg height="300px" width="300px" fill="#000000" xmlns:dc="http://purl.org/dc/elements/1.1/" xmlns:cc="http://creativecommons.org/ns#" xmlns:rdf="http://www.w3.org/1999/02/22-rdf-syntax-ns#" xmlns:svg="http://www.w3.org/2000/svg" xmlns="http://www.w3.org/2000/svg" xmlns:sodipodi="http://sodipodi.sourceforge.net/DTD/sodipodi-0.dtd" xmlns:inkscape="http://www.inkscape.org/namespaces/inkscape" version="1.1" x="0px" y="0px" viewBox="0 0 100 100"><g transform="translate(0,-952.36218)"><path style="text-indent:0;text-transform:none;direction:ltr;block-progression:tb;baseline-shift:baseline;color:#000000;enable-background:accumulate;" d="m 17.221,963.92143 c -6.228,0 -11.221,4.9677 -11.221,11.1953 l 0,27.36067 c 0,6.2278 4.993,11.1954 11.221,11.1954 l 31.5621,0 c 2.6426,-10.7769 12.3961,-18.77847 23.9791,-18.77847 l 0.4611,0 0,-19.7776 c 0,-6.2278 -4.9682,-11.1953 -11.1954,-11.1953 l -44.8069,0 z m 10.0937,9.7863 c 0.2821,0.034 0.5603,-0.025 0.8455,0.1537 l 24.1326,13.5522 c 0.7413,0.4228 0.7569,1.6859 0.026,2.1264 l -23.7741,14.19277 c -0.7403,0.4554 -1.8706,-0.1795 -1.8702,-1.0504 l -0.3586,-27.74497 c -0.01,-0.5744 0.4363,-1.1226 0.9991,-1.2297 z m 1.4859,3.3304 0.3074,23.46667 20.1106,-11.98947 -20.418,-11.4772 z m 43.9616,21.2892 c -11.7482,0 -21.2123,9.48967 -21.2123,21.23777 0,11.7482 9.4641,21.2378 21.2123,21.2378 11.7481,0 21.2378,-9.4896 21.2378,-21.2378 0,-11.7481 -9.4897,-21.23777 -21.2378,-21.23777 z m -1.5884,7.71107 3.2024,0 c 0.8576,0 1.5115,0.7403 1.5115,1.5372 l 0,8.864 8.8896,0 c 0.858,0 1.5115,0.7399 1.5115,1.5371 l 0,3.2024 c 0,0.7972 -0.6535,1.5371 -1.5115,1.5371 l -8.8896,0 0,8.864 c 0,0.7969 -0.6538,1.5115 -1.5115,1.5115 l -3.2024,0 c -0.8579,0 -1.5371,-0.6534 -1.5371,-1.5115 l 0,-8.864 -8.864,0 c -0.8582,0 -1.5372,-0.7399 -1.5372,-1.5371 l 0,-3.2024 c 0,-0.7972 0.679,-1.5371 1.5372,-1.5371 l 8.864,0 0,-8.864 c 0,-0.858 0.6792,-1.5372 1.5371,-1.5372 z m 0.9223,2.4594 0,9.1715 0,1.2297 -1.2297,0 -9.1715,0 0,1.3578 9.1715,0 1.2297,0 0,1.2297 0,9.1458 1.3322,0 0,-9.1458 0,-1.2297 1.2297,0 9.1714,0 0,-1.3578 -9.1714,0 -1.2297,0 0,-1.2297 0,-9.1715 -1.3322,0 z" fill="#000000" fill-opacity="1" stroke="none" marker="none" visibility="visible" display="inline" overflow="visible"/></g></svg>